<svg id="Capa_1" enable-background="new 0 0 512 512" height="512" viewBox="0 0 512 512" width="512" xmlns="http://www.w3.org/2000/svg"><g><path d="m508.789 102.945c-141.348-135.032-364.229-135.032-505.577 0-3.58 3.42-4.243 8.902-1.602 13.09l245.578 389.435c4.087 6.481 13.537 6.481 17.624 0l245.579-389.435c2.641-4.188 1.978-9.67-1.602-13.09z" fill="#fcd0a3"/><path d="m510.391 116.039-245.579 389.432c-4.087 6.481-13.537 6.481-17.624 0l-245.579-389.432c-2.641-4.188-1.978-9.669 1.602-13.09 141.346-135.04 364.232-135.04 505.578 0 3.58 3.42 4.243 8.901 1.602 13.09z" fill="#fcd0a3"/><path d="m496.383 91.657-254.105 406.027 4.91 7.786c4.087 6.481 13.537 6.481 17.624 0l245.577-389.429c2.641-4.187 1.982-9.671-1.601-13.086-4.068-3.878-8.206-7.642-12.405-11.298z" fill="#ffb983"/><circle cx="238.109" cy="158.477" fill="#fb636f" r="52.619"/><path d="m265.93 113.818c5.039 8.072 7.961 17.603 7.961 27.82 0 29.061-23.558 52.619-52.619 52.619-10.217 0-19.748-2.921-27.82-7.961 9.294 14.887 25.815 24.799 44.658 24.799 29.061 0 52.619-23.558 52.619-52.619 0-18.843-9.912-35.364-24.799-44.658z" fill="#fa4954"/><path d="m400.535 290.246-41.096 65.164c-3.168.6-6.441.916-9.777.916-29.056 0-52.619-23.563-52.619-52.619s23.563-52.619 52.619-52.619c24.405-.002 44.927 16.616 50.873 39.158z" fill="#fb636f"/><path d="m332.538 353.46c5.368 1.853 11.126 2.865 17.124 2.865 3.336 0 6.609-.316 9.777-.916l41.096-65.164c-2.399-9.093-7.177-17.214-13.619-23.674z" fill="#fa4954"/><path d="m273.891 401.577c0 29.056-23.563 52.619-52.619 52.619-2.263 0-4.494-.147-6.683-.421l-43.295-68.668c6.904-20.995 26.678-36.149 49.978-36.149 29.056 0 52.619 23.563 52.619 52.619z" fill="#fb636f"/><path d="m249.411 357.126c5.165 8.141 8.168 17.787 8.168 28.139 0 29.056-23.563 52.619-52.619 52.619-.134 0-.265-.012-.398-.013l10.027 15.904c2.189.274 4.42.421 6.683.421 29.056 0 52.619-23.563 52.619-52.619 0-18.704-9.773-35.119-24.48-44.451z" fill="#fa4954"/><g><path d="m423.414 114.147c-14.602 9.352-24.29 25.706-24.29 44.33 0 28.625 22.868 51.925 51.335 52.598l31.803-50.434c-18.135-18.137-37.915-33.622-58.848-46.494z" fill="#fb636f"/></g><path d="m463.86 143.626-37.968 60.668c7.287 4.124 15.648 6.57 24.568 6.781l31.803-50.434c-5.961-5.962-12.104-11.627-18.403-17.015z" fill="#fa4954"/><path d="m131.819 186.891c0 28.962-23.416 52.472-52.346 52.619l-47.641-75.551c8.524-17.575 26.531-29.688 47.368-29.688 29.056.001 52.619 23.564 52.619 52.62z" fill="#fb636f"/><path d="m103.238 140.09c7.338 9.045 11.743 20.567 11.743 33.12 0 26.301-19.312 48.102-44.527 51.997l9.019 14.303c28.93-.147 52.346-23.658 52.346-52.619 0-20.393-11.615-38.067-28.581-46.801z" fill="#fa4954"/><path d="m1.609 116.035 28.128 44.605c124.961-124.962 327.564-124.962 452.526 0l28.128-44.605c2.641-4.188 1.978-9.67-1.602-13.09-141.348-135.032-364.229-135.032-505.577 0-3.581 3.421-4.244 8.902-1.603 13.09z" fill="#f4a86d"/><path d="m496.384 91.656-6.416 10.252c-5.746 9.181-18.022 11.702-26.889 5.481-136.05-95.442-323.208-86.108-449.254 28.018l15.912 25.233c124.961-124.962 327.564-124.962 452.526 0l28.126-44.602c2.641-4.188 1.982-9.671-1.601-13.087-4.068-3.877-8.205-7.64-12.404-11.295z" fill="#e89858"/><path d="m152.114 258.453 10.122-5.061c4.011-2.005 8.855-1.219 12.026 1.952l14.236 14.236c5.028 5.028 3.653 13.505-2.708 16.685l-10.122 5.061c-4.011 2.005-8.855 1.219-12.026-1.952l-14.236-14.236c-5.028-5.028-3.653-13.505 2.708-16.685z" fill="#a1e42c"/><path d="m358.834 145.848-10.122 5.061c-4.011 2.005-8.855 1.219-12.026-1.952l-14.236-14.236c-5.028-5.028-3.653-13.505 2.708-16.685l10.122-5.061c4.011-2.005 8.855-1.219 12.026 1.952l14.236 14.236c5.028 5.028 3.652 13.505-2.708 16.685z" fill="#a1e42c"/><path d="m357.72 204.813-3.578 10.735c-1.418 4.254-5.399 7.124-9.883 7.124h-20.132c-7.111 0-12.132-6.967-9.883-13.713l3.578-10.735c1.418-4.254 5.399-7.124 9.883-7.124h20.132c7.111 0 12.132 6.967 9.883 13.713z" fill="#a1e42c"/><g fill="#818181"><circle cx="154.971" cy="126.905" r="8.419"/><circle cx="162.338" cy="197.415" r="8.419"/><circle cx="217.438" cy="319.867" r="8.419"/><circle cx="392.81" cy="220.567" r="8.419"/><circle cx="256" cy="268.977" r="8.419"/></g></g></svg>